<svg id="SvgjsSvg1000" xmlns="http://www.w3.org/2000/svg" version="1.1" xmlns:xlink="http://www.w3.org/1999/xlink" xmlns:svgjs="http://svgjs.com/svgjs" width="32" height="30" viewBox="0 0 32 30"><title>Forma 1</title><desc>Created with Avocode.</desc><defs id="SvgjsDefs1001"></defs><path id="SvgjsPath1007" d="M110.125 1198.47L106.981 1198.47L106.981 1202.08C106.981 1203.28 105.985 1203.9399999999998 104.75999999999999 1203.9399999999998L104.315 1203.9399999999998C103.091 1203.9399999999998 102.095 1202.9599999999998 102.095 1201.7599999999998L102.095 1198.4699999999998L91.2696 1198.4699999999998L91.2696 1201.7899999999997C91.2696 1202.9899999999998 90.2734 1203.9699999999998 89.0488 1203.9699999999998L88.6037 1203.9699999999998C87.3793 1203.9699999999998 86.3832 1202.9899999999998 86.3832 1201.7899999999997L86.3832 1198.4699999999998L82.9913 1198.4699999999998C81.8933 1198.4699999999998 81 1199.35 81 1200.4299999999998L81 1224.0499999999997C81 1225.1199999999997 81.8933 1225.9999999999998 82.9913 1225.9999999999998L110.125 1225.9999999999998C111.223 1225.9999999999998 112.116 1225.1199999999997 112.116 1224.0499999999997L112.116 1200.4299999999998C112.116 1199.35 111.223 1198.4699999999998 110.125 1198.4699999999998ZM110.125 1224.05L82.9913 1224.05L82.9913 1206.21L110.125 1206.21L110.126 1224.05C110.126 1224.05 110.126 1224.05 110.125 1224.05ZM88.6036 1202.99L89.0488 1202.99C89.7253 1202.99 90.2737 1202.45 90.2737 1201.79L90.2737 1197.23C90.2737 1196.57 89.7253 1196.03 89.0488 1196.03L88.6036 1196.03C87.9272 1196.03 87.3787 1196.57 87.3787 1197.23L87.3787 1201.79C87.3787 1202.45 87.9272 1202.99 88.6036 1202.99ZM104.315 1202.96L104.75999999999999 1202.96C105.437 1202.96 105.98499999999999 1202.42 105.98499999999999 1201.76L105.98499999999999 1197.2C105.98499999999999 1196.54 105.43699999999998 1196 104.75999999999999 1196L104.315 1196C103.639 1196 103.09 1196.54 103.09 1197.2L103.09 1201.76C103.09 1202.42 103.63900000000001 1202.96 104.315 1202.96ZM103.421 1217.17L106.997 1217.17C107.139 1217.17 107.254 1217.0500000000002 107.254 1216.92L107.254 1213.88C107.254 1213.74 107.13900000000001 1213.6200000000001 106.997 1213.6200000000001L103.421 1213.6200000000001C103.28 1213.6200000000001 103.165 1213.74 103.165 1213.88L103.165 1216.92C103.165 1217.0500000000002 103.28 1217.17 103.421 1217.17ZM85.9155 1217.17L89.49119999999999 1217.17C89.63289999999999 1217.17 89.7478 1217.0500000000002 89.7478 1216.92L89.7478 1213.88C89.7478 1213.74 89.63289999999999 1213.6200000000001 89.49119999999999 1213.6200000000001L85.9155 1213.6200000000001C85.7738 1213.6200000000001 85.65889999999999 1213.74 85.65889999999999 1213.88L85.65889999999999 1216.92C85.65889999999999 1217.0500000000002 85.7738 1217.17 85.9155 1217.17ZM91.7509 1217.17L95.3264 1217.17C95.46820000000001 1217.17 95.5831 1217.0500000000002 95.5831 1216.92L95.5831 1213.88C95.5831 1213.74 95.4682 1213.6200000000001 95.3264 1213.6200000000001L91.7509 1213.6200000000001C91.6091 1213.6200000000001 91.4942 1213.74 91.4942 1213.88L91.4942 1216.92C91.4942 1217.0500000000002 91.60910000000001 1217.17 91.7509 1217.17ZM97.5861 1217.17L101.162 1217.17C101.30300000000001 1217.17 101.418 1217.0500000000002 101.418 1216.92L101.418 1213.88C101.418 1213.74 101.30300000000001 1213.6200000000001 101.162 1213.6200000000001L97.5861 1213.6200000000001C97.4444 1213.6200000000001 97.3295 1213.74 97.3295 1213.88L97.3295 1216.92C97.3295 1217.0500000000002 97.4444 1217.17 97.5861 1217.17ZM103.421 1212.19L106.997 1212.19C107.139 1212.19 107.254 1212.0800000000002 107.254 1211.94L107.254 1208.9C107.254 1208.76 107.13900000000001 1208.65 106.997 1208.65L103.421 1208.65C103.28 1208.65 103.165 1208.76 103.165 1208.9L103.165 1211.94C103.165 1212.0800000000002 103.28 1212.19 103.421 1212.19ZM95.3264 1218.6L91.7509 1218.6C91.6091 1218.6 91.4942 1218.7099999999998 91.4942 1218.85L91.4942 1221.8899999999999C91.4942 1222.03 91.60910000000001 1222.1399999999999 91.7509 1222.1399999999999L95.3264 1222.1399999999999C95.46820000000001 1222.1399999999999 95.5831 1222.03 95.5831 1221.8899999999999L95.5831 1218.85C95.5831 1218.7099999999998 95.4682 1218.6 95.3264 1218.6ZM89.4912 1218.6L85.9157 1218.6C85.7739 1218.6 85.659 1218.7099999999998 85.659 1218.85L85.659 1221.8899999999999C85.659 1222.03 85.77390000000001 1222.1399999999999 85.9157 1222.1399999999999L89.4912 1222.1399999999999C89.6329 1222.1399999999999 89.74780000000001 1222.03 89.74780000000001 1221.8899999999999L89.74780000000001 1218.85C89.74780000000001 1218.7099999999998 89.6329 1218.6 89.4912 1218.6ZM97.5861 1212.19L101.162 1212.19C101.30300000000001 1212.19 101.418 1212.0800000000002 101.418 1211.94L101.418 1208.9C101.418 1208.76 101.30300000000001 1208.65 101.162 1208.65L97.5861 1208.65C97.4443 1208.65 97.3294 1208.76 97.3294 1208.9L97.3294 1211.94C97.3294 1212.0800000000002 97.44430000000001 1212.19 97.5861 1212.19ZM101.162 1218.6L97.5861 1218.6C97.4444 1218.6 97.3295 1218.7099999999998 97.3295 1218.85L97.3295 1221.8899999999999C97.3295 1222.03 97.4444 1222.1399999999999 97.5861 1222.1399999999999L101.162 1222.1399999999999C101.304 1222.1399999999999 101.418 1222.03 101.418 1221.8899999999999L101.418 1218.85C101.418 1218.7099999999998 101.304 1218.6 101.162 1218.6ZM106.997 1218.6L103.421 1218.6C103.28 1218.6 103.165 1218.7099999999998 103.165 1218.85L103.165 1221.8899999999999C103.165 1222.03 103.28 1222.1399999999999 103.421 1222.1399999999999L106.997 1222.1399999999999C107.139 1222.1399999999999 107.254 1222.03 107.254 1221.8899999999999L107.254 1218.85C107.254 1218.7099999999998 107.13900000000001 1218.6 106.997 1218.6Z " fill="#000000" fill-opacity="1" transform="matrix(1,0,0,1,-81,-1196)"></path><path id="SvgjsPath1008" d="M110.125 1198.47L106.981 1198.47L106.981 1202.08C106.981 1203.28 105.985 1203.9399999999998 104.75999999999999 1203.9399999999998L104.315 1203.9399999999998C103.091 1203.9399999999998 102.095 1202.9599999999998 102.095 1201.7599999999998L102.095 1198.4699999999998L91.2696 1198.4699999999998L91.2696 1201.7899999999997C91.2696 1202.9899999999998 90.2734 1203.9699999999998 89.0488 1203.9699999999998L88.6037 1203.9699999999998C87.3793 1203.9699999999998 86.3832 1202.9899999999998 86.3832 1201.7899999999997L86.3832 1198.4699999999998L82.9913 1198.4699999999998C81.8933 1198.4699999999998 81 1199.35 81 1200.4299999999998L81 1224.0499999999997C81 1225.1199999999997 81.8933 1225.9999999999998 82.9913 1225.9999999999998L110.125 1225.9999999999998C111.223 1225.9999999999998 112.116 1225.1199999999997 112.116 1224.0499999999997L112.116 1200.4299999999998C112.116 1199.35 111.223 1198.4699999999998 110.125 1198.4699999999998ZM110.125 1224.05L82.9913 1224.05L82.9913 1206.21L110.125 1206.21L110.126 1224.05C110.126 1224.05 110.126 1224.05 110.125 1224.05ZM88.6036 1202.99L89.0488 1202.99C89.7253 1202.99 90.2737 1202.45 90.2737 1201.79L90.2737 1197.23C90.2737 1196.57 89.7253 1196.03 89.0488 1196.03L88.6036 1196.03C87.9272 1196.03 87.3787 1196.57 87.3787 1197.23L87.3787 1201.79C87.3787 1202.45 87.9272 1202.99 88.6036 1202.99ZM104.315 1202.96L104.75999999999999 1202.96C105.437 1202.96 105.98499999999999 1202.42 105.98499999999999 1201.76L105.98499999999999 1197.2C105.98499999999999 1196.54 105.43699999999998 1196 104.75999999999999 1196L104.315 1196C103.639 1196 103.09 1196.54 103.09 1197.2L103.09 1201.76C103.09 1202.42 103.63900000000001 1202.96 104.315 1202.96ZM103.421 1217.17L106.997 1217.17C107.139 1217.17 107.254 1217.0500000000002 107.254 1216.92L107.254 1213.88C107.254 1213.74 107.13900000000001 1213.6200000000001 106.997 1213.6200000000001L103.421 1213.6200000000001C103.28 1213.6200000000001 103.165 1213.74 103.165 1213.88L103.165 1216.92C103.165 1217.0500000000002 103.28 1217.17 103.421 1217.17ZM85.9155 1217.17L89.49119999999999 1217.17C89.63289999999999 1217.17 89.7478 1217.0500000000002 89.7478 1216.92L89.7478 1213.88C89.7478 1213.74 89.63289999999999 1213.6200000000001 89.49119999999999 1213.6200000000001L85.9155 1213.6200000000001C85.7738 1213.6200000000001 85.65889999999999 1213.74 85.65889999999999 1213.88L85.65889999999999 1216.92C85.65889999999999 1217.0500000000002 85.7738 1217.17 85.9155 1217.17ZM91.7509 1217.17L95.3264 1217.17C95.46820000000001 1217.17 95.5831 1217.0500000000002 95.5831 1216.92L95.5831 1213.88C95.5831 1213.74 95.4682 1213.6200000000001 95.3264 1213.6200000000001L91.7509 1213.6200000000001C91.6091 1213.6200000000001 91.4942 1213.74 91.4942 1213.88L91.4942 1216.92C91.4942 1217.0500000000002 91.60910000000001 1217.17 91.7509 1217.17ZM97.5861 1217.17L101.162 1217.17C101.30300000000001 1217.17 101.418 1217.0500000000002 101.418 1216.92L101.418 1213.88C101.418 1213.74 101.30300000000001 1213.6200000000001 101.162 1213.6200000000001L97.5861 1213.6200000000001C97.4444 1213.6200000000001 97.3295 1213.74 97.3295 1213.88L97.3295 1216.92C97.3295 1217.0500000000002 97.4444 1217.17 97.5861 1217.17ZM103.421 1212.19L106.997 1212.19C107.139 1212.19 107.254 1212.0800000000002 107.254 1211.94L107.254 1208.9C107.254 1208.76 107.13900000000001 1208.65 106.997 1208.65L103.421 1208.65C103.28 1208.65 103.165 1208.76 103.165 1208.9L103.165 1211.94C103.165 1212.0800000000002 103.28 1212.19 103.421 1212.19ZM95.3264 1218.6L91.7509 1218.6C91.6091 1218.6 91.4942 1218.7099999999998 91.4942 1218.85L91.4942 1221.8899999999999C91.4942 1222.03 91.60910000000001 1222.1399999999999 91.7509 1222.1399999999999L95.3264 1222.1399999999999C95.46820000000001 1222.1399999999999 95.5831 1222.03 95.5831 1221.8899999999999L95.5831 1218.85C95.5831 1218.7099999999998 95.4682 1218.6 95.3264 1218.6ZM89.4912 1218.6L85.9157 1218.6C85.7739 1218.6 85.659 1218.7099999999998 85.659 1218.85L85.659 1221.8899999999999C85.659 1222.03 85.77390000000001 1222.1399999999999 85.9157 1222.1399999999999L89.4912 1222.1399999999999C89.6329 1222.1399999999999 89.74780000000001 1222.03 89.74780000000001 1221.8899999999999L89.74780000000001 1218.85C89.74780000000001 1218.7099999999998 89.6329 1218.6 89.4912 1218.6ZM97.5861 1212.19L101.162 1212.19C101.30300000000001 1212.19 101.418 1212.0800000000002 101.418 1211.94L101.418 1208.9C101.418 1208.76 101.30300000000001 1208.65 101.162 1208.65L97.5861 1208.65C97.4443 1208.65 97.3294 1208.76 97.3294 1208.9L97.3294 1211.94C97.3294 1212.0800000000002 97.44430000000001 1212.19 97.5861 1212.19ZM101.162 1218.6L97.5861 1218.6C97.4444 1218.6 97.3295 1218.7099999999998 97.3295 1218.85L97.3295 1221.8899999999999C97.3295 1222.03 97.4444 1222.1399999999999 97.5861 1222.1399999999999L101.162 1222.1399999999999C101.304 1222.1399999999999 101.418 1222.03 101.418 1221.8899999999999L101.418 1218.85C101.418 1218.7099999999998 101.304 1218.6 101.162 1218.6ZM106.997 1218.6L103.421 1218.6C103.28 1218.6 103.165 1218.7099999999998 103.165 1218.85L103.165 1221.8899999999999C103.165 1222.03 103.28 1222.1399999999999 103.421 1222.1399999999999L106.997 1222.1399999999999C107.139 1222.1399999999999 107.254 1222.03 107.254 1221.8899999999999L107.254 1218.85C107.254 1218.7099999999998 107.13900000000001 1218.6 106.997 1218.6Z " fill="#bbbbbb" fill-opacity="1" transform="matrix(1,0,0,1,-81,-1196)"></path></svg>