<svg id="SvgjsSvg1000" xmlns="http://www.w3.org/2000/svg" version="1.1" xmlns:xlink="http://www.w3.org/1999/xlink" xmlns:svgjs="http://svgjs.com/svgjs" width="6" height="12" viewBox="0 0 6 12"><title>Facebook Icon</title><desc>Created with Avocode.</desc><defs id="SvgjsDefs1001"></defs><path id="SvgjsPath1007" d="M856.489 3767.89L854.62 3767.89L854.62 3766.64C854.62 3766.17 854.925 3766.06 855.14 3766.06C855.355 3766.06 856.459 3766.06 856.459 3766.06L856.459 3764.0099999999998L854.6419999999999 3763.9999999999995C852.6249999999999 3763.9999999999995 852.1659999999999 3765.5299999999997 852.1659999999999 3766.5099999999998L852.1659999999999 3767.89L850.9999999999999 3767.89L850.9999999999999 3770L852.1659999999999 3770C852.1659999999999 3772.72 852.1659999999999 3776 852.1659999999999 3776L854.6199999999999 3776C854.6199999999999 3776 854.6199999999999 3772.69 854.6199999999999 3770L856.2749999999999 3770Z " fill="#808e90" fill-opacity="1" transform="matrix(1,0,0,1,-851,-3764)"></path></svg>