<svg id="SvgjsSvg1000" xmlns="http://www.w3.org/2000/svg" version="1.1" xmlns:xlink="http://www.w3.org/1999/xlink" xmlns:svgjs="http://svgjs.com/svgjs" width="45" height="36" viewBox="0 0 45 36"><title>Forma 1</title><desc>Created with Avocode.</desc><defs id="SvgjsDefs1001"></defs><path id="SvgjsPath1007" d="M239.718 783.183L228.79999999999998 768.169C228.57299999999998 767.857 228.21399999999997 767.673 227.831 767.673L207.658 767.673C207.65099999999998 767.673 207.64399999999998 767.674 207.637 767.674C207.605 767.675 207.572 767.677 207.54 767.68C207.529 767.6819999999999 207.517 767.6819999999999 207.506 767.684C207.466 767.689 207.426 767.6949999999999 207.387 767.7049999999999C207.38400000000001 767.7059999999999 207.381 767.7059999999999 207.37800000000001 767.7069999999999C207.334 767.7169999999999 207.29000000000002 767.7299999999999 207.247 767.7459999999999C207.246 767.7469999999998 207.24400000000003 767.7479999999998 207.24300000000002 767.7479999999998C207.20400000000004 767.7619999999998 207.16600000000003 767.7789999999998 207.12900000000002 767.7979999999998C207.11700000000002 767.8039999999997 207.10600000000002 767.8109999999998 207.09400000000002 767.8169999999998C207.068 767.8309999999998 207.04200000000003 767.8449999999998 207.01700000000002 767.8619999999997C207.00200000000004 767.8709999999998 206.98800000000003 767.8809999999997 206.973 767.8909999999997C206.961 767.8999999999997 206.948 767.9069999999997 206.936 767.9159999999997C206.92700000000002 767.9229999999997 206.919 767.9319999999997 206.91 767.9389999999997C206.896 767.9499999999997 206.882 767.9609999999998 206.869 767.9729999999997C206.847 767.9919999999997 206.827 768.0119999999997 206.807 768.0319999999997C206.796 768.0429999999997 206.786 768.0529999999997 206.77599999999998 768.0639999999997C206.75199999999998 768.0899999999997 206.72899999999998 768.1179999999997 206.70799999999997 768.1459999999997C206.70399999999998 768.1509999999997 206.69899999999998 768.1559999999997 206.69499999999996 768.1609999999997L206.68599999999998 768.1729999999997C206.68399999999997 768.1749999999996 206.683 768.1779999999997 206.68099999999998 768.1799999999996L195.539 783.2359999999996C195.266 783.6049999999997 195.22199999999998 784.0989999999997 195.426 784.5109999999996C195.63 784.9239999999996 196.046 785.1839999999996 196.50199999999998 785.1839999999996L197.743 785.1839999999996L197.743 801.7819999999996C197.743 802.4539999999996 198.332 802.9999999999995 198.99599999999998 802.9999999999995L236.45 802.9999999999995C237.11399999999998 802.9999999999995 237.60299999999998 802.4539999999995 237.60299999999998 801.7819999999996L237.60299999999998 785.1839999999996L238.79399999999998 785.1839999999996C238.79399999999998 785.1839999999996 238.796 785.1839999999996 238.79699999999997 785.1839999999996C239.46099999999996 785.1839999999996 239.99999999999997 784.6389999999997 239.99999999999997 783.9659999999997C239.99999999999997 783.6679999999997 239.89399999999998 783.3949999999996 239.71799999999996 783.1829999999997ZM219.416 782.748L210.063 770.109L227.22299999999998 770.109L236.414 782.748ZM235.196 800.564L217.447 800.564L217.447 785.184L235.196 785.184ZM215.041 800.564L212.484 800.564L212.484 791.4269999999999C212.484 790.7549999999999 211.995 790.209 211.33100000000002 790.209L203.96 790.209C203.29600000000002 790.209 202.70700000000002 790.755 202.70700000000002 791.4269999999999L202.70700000000002 800.5639999999999L200.15000000000003 800.5639999999999L200.15000000000003 785.1839999999999L215.04100000000003 785.1839999999999ZM198.907 782.748L207.65800000000002 770.923L216.40900000000002 782.748ZM210.077 800.564L205.113 800.564L205.113 792.646L210.077 792.646ZM231.135 790.361C231.135 789.689 230.596 789.143 229.932 789.143L222.56199999999998 789.143C221.897 789.143 221.35799999999998 789.6890000000001 221.35799999999998 790.361L221.35799999999998 795.386C221.35799999999998 796.059 221.89699999999996 796.605 222.56199999999998 796.605L229.932 796.605C230.59599999999998 796.605 231.135 796.059 231.135 795.386ZM223.765 791.58L228.72899999999998 791.58L228.72899999999998 794.168L223.765 794.168Z " fill="#000000" fill-opacity="1" transform="matrix(1,0,0,1,-195,-767)"></path><path id="SvgjsPath1008" d="M239.718 783.183L228.79999999999998 768.169C228.57299999999998 767.857 228.21399999999997 767.673 227.831 767.673L207.658 767.673C207.65099999999998 767.673 207.64399999999998 767.674 207.637 767.674C207.605 767.675 207.572 767.677 207.54 767.68C207.529 767.6819999999999 207.517 767.6819999999999 207.506 767.684C207.466 767.689 207.426 767.6949999999999 207.387 767.7049999999999C207.38400000000001 767.7059999999999 207.381 767.7059999999999 207.37800000000001 767.7069999999999C207.334 767.7169999999999 207.29000000000002 767.7299999999999 207.247 767.7459999999999C207.246 767.7469999999998 207.24400000000003 767.7479999999998 207.24300000000002 767.7479999999998C207.20400000000004 767.7619999999998 207.16600000000003 767.7789999999998 207.12900000000002 767.7979999999998C207.11700000000002 767.8039999999997 207.10600000000002 767.8109999999998 207.09400000000002 767.8169999999998C207.068 767.8309999999998 207.04200000000003 767.8449999999998 207.01700000000002 767.8619999999997C207.00200000000004 767.8709999999998 206.98800000000003 767.8809999999997 206.973 767.8909999999997C206.961 767.8999999999997 206.948 767.9069999999997 206.936 767.9159999999997C206.92700000000002 767.9229999999997 206.919 767.9319999999997 206.91 767.9389999999997C206.896 767.9499999999997 206.882 767.9609999999998 206.869 767.9729999999997C206.847 767.9919999999997 206.827 768.0119999999997 206.807 768.0319999999997C206.796 768.0429999999997 206.786 768.0529999999997 206.77599999999998 768.0639999999997C206.75199999999998 768.0899999999997 206.72899999999998 768.1179999999997 206.70799999999997 768.1459999999997C206.70399999999998 768.1509999999997 206.69899999999998 768.1559999999997 206.69499999999996 768.1609999999997L206.68599999999998 768.1729999999997C206.68399999999997 768.1749999999996 206.683 768.1779999999997 206.68099999999998 768.1799999999996L195.539 783.2359999999996C195.266 783.6049999999997 195.22199999999998 784.0989999999997 195.426 784.5109999999996C195.63 784.9239999999996 196.046 785.1839999999996 196.50199999999998 785.1839999999996L197.743 785.1839999999996L197.743 801.7819999999996C197.743 802.4539999999996 198.332 802.9999999999995 198.99599999999998 802.9999999999995L236.45 802.9999999999995C237.11399999999998 802.9999999999995 237.60299999999998 802.4539999999995 237.60299999999998 801.7819999999996L237.60299999999998 785.1839999999996L238.79399999999998 785.1839999999996C238.79399999999998 785.1839999999996 238.796 785.1839999999996 238.79699999999997 785.1839999999996C239.46099999999996 785.1839999999996 239.99999999999997 784.6389999999997 239.99999999999997 783.9659999999997C239.99999999999997 783.6679999999997 239.89399999999998 783.3949999999996 239.71799999999996 783.1829999999997ZM219.416 782.748L210.063 770.109L227.22299999999998 770.109L236.414 782.748ZM235.196 800.564L217.447 800.564L217.447 785.184L235.196 785.184ZM215.041 800.564L212.484 800.564L212.484 791.4269999999999C212.484 790.7549999999999 211.995 790.209 211.33100000000002 790.209L203.96 790.209C203.29600000000002 790.209 202.70700000000002 790.755 202.70700000000002 791.4269999999999L202.70700000000002 800.5639999999999L200.15000000000003 800.5639999999999L200.15000000000003 785.1839999999999L215.04100000000003 785.1839999999999ZM198.907 782.748L207.65800000000002 770.923L216.40900000000002 782.748ZM210.077 800.564L205.113 800.564L205.113 792.646L210.077 792.646ZM231.135 790.361C231.135 789.689 230.596 789.143 229.932 789.143L222.56199999999998 789.143C221.897 789.143 221.35799999999998 789.6890000000001 221.35799999999998 790.361L221.35799999999998 795.386C221.35799999999998 796.059 221.89699999999996 796.605 222.56199999999998 796.605L229.932 796.605C230.59599999999998 796.605 231.135 796.059 231.135 795.386ZM223.765 791.58L228.72899999999998 791.58L228.72899999999998 794.168L223.765 794.168Z " fill="#2e71f2" fill-opacity="1" transform="matrix(1,0,0,1,-195,-767)"></path></svg>