<svg id="SvgjsSvg1011" xmlns="http://www.w3.org/2000/svg" version="1.1" xmlns:xlink="http://www.w3.org/1999/xlink" xmlns:svgjs="http://svgjs.com/svgjs" width="9" height="9" viewBox="0 0 9 9"><title>RSS Icon</title><desc>Created with Avocode.</desc><defs id="SvgjsDefs1012"></defs><path id="SvgjsPath1013" d="M940.889 3773.85L939.122 3773.85C939.122 3772.0499999999997 936.952 3769.87 935.135 3769.87L935.135 3768.12C938.052 3768.12 940.889 3770.95 940.889 3773.85ZM936.879 3773C936.879 3773.46 936.472 3773.85 936 3773.85C935.528 3773.85 935.135 3773.46 935.135 3773C935.135 3772.53 935.528 3772.12 936 3772.12C936.482 3772.12 936.879 3772.52 936.879 3773ZM935.135 3765.11L935.135 3766.86C938.903 3766.88 942.116 3770.1 942.129 3773.85L943.897 3773.85C943.897 3769.12 939.889 3765.12 935.135 3765.11Z " fill="#808e90" fill-opacity="1" transform="matrix(1,0,0,1,-935,-3765)"></path></svg>