<svg id="SvgjsSvg1008" xmlns="http://www.w3.org/2000/svg" version="1.1" xmlns:xlink="http://www.w3.org/1999/xlink" xmlns:svgjs="http://svgjs.com/svgjs" width="13" height="10" viewBox="0 0 13 10"><title>Twitter Icon</title><desc>Created with Avocode.</desc><defs id="SvgjsDefs1009"></defs><path id="SvgjsPath1010" d="M901.437 3766.96C901.429 3766.96 901.421 3766.95 901.413 3766.94C900.934 3766.5 900.371 3766.29 899.724 3766.31L899.7040000000001 3766.27C899.7080000000001 3766.2599999999998 899.7120000000001 3766.2599999999998 899.716 3766.2599999999998C900.303 3766.1299999999997 900.65 3765.99 900.754 3765.85C900.79 3765.73 900.746 3765.66 900.618 3765.64C900.3230000000001 3765.68 900.051 3765.74 899.807 3765.8399999999997C900.115 3765.64 900.235 3765.5099999999998 900.167 3765.4399999999996C899.863 3765.4399999999996 899.5360000000001 3765.5999999999995 899.192 3765.8999999999996C899.32 3765.68 899.368 3765.5699999999997 899.336 3765.5499999999997C899.173 3765.66 899.029 3765.7799999999997 898.905 3765.91C898.646 3766.19 898.438 3766.46 898.278 3766.7L898.27 3766.72C897.859 3767.37 897.572 3768.0299999999997 897.4 3768.7099999999996L897.336 3768.7599999999998L897.3240000000001 3768.77C897.076 3768.46 896.7810000000001 3768.21 896.426 3768C896.0070000000001 3767.73 895.5150000000001 3767.48 894.9480000000001 3767.23C894.3290000000001 3766.91 893.7020000000001 3766.65 893.0680000000001 3766.45C893.0640000000001 3767.1499999999996 893.4110000000001 3767.71 894.1020000000001 3768.1099999999997L894.1020000000001 3768.12C893.8580000000001 3768.12 893.623 3768.16 893.3950000000001 3768.23C893.4390000000001 3768.88 893.9060000000001 3769.32 894.7930000000001 3769.57L894.7880000000001 3769.5800000000004C894.4410000000001 3769.5600000000004 894.1540000000001 3769.6800000000003 893.9300000000002 3769.9300000000003C894.2210000000002 3770.4900000000002 894.7370000000002 3770.76 895.4830000000002 3770.7400000000002C895.3350000000002 3770.8100000000004 895.2200000000001 3770.8900000000003 895.1440000000001 3770.9900000000002C895.0080000000002 3771.13 894.9640000000002 3771.2900000000004 895.0080000000002 3771.48C895.1680000000001 3771.77 895.4550000000002 3771.9 895.8790000000001 3771.88L895.8790000000001 3771.88L895.9020000000002 3771.9100000000003C895.8990000000001 3771.9100000000003 895.8950000000002 3771.9200000000005 895.8910000000002 3771.9200000000005C895.1600000000002 3772.6600000000003 894.2770000000002 3773.0000000000005 893.2430000000002 3772.9300000000007L893.2270000000002 3772.940000000001C892.5960000000002 3772.9300000000007 891.9220000000003 3772.630000000001 891.1910000000003 3772.040000000001C891.9260000000003 3773.080000000001 892.9000000000002 3773.830000000001 894.1060000000002 3774.300000000001C895.4870000000002 3774.750000000001 896.8690000000003 3774.790000000001 898.2460000000002 3774.400000000001L898.2700000000002 3774.400000000001C899.6080000000002 3774.020000000001 900.7420000000002 3773.240000000001 901.6760000000002 3772.060000000001C902.1070000000002 3771.440000000001 902.3790000000001 3770.850000000001 902.4870000000002 3770.2800000000007C903.1860000000001 3770.310000000001 903.6890000000002 3770.1100000000006 904.0000000000002 3769.6900000000005L903.9920000000002 3769.6800000000003C903.7600000000002 3769.76 903.3050000000002 3769.7400000000002 902.6300000000002 3769.6000000000004L902.6300000000002 3769.5200000000004C902.6300000000002 3769.5200000000004 902.6300000000002 3769.5200000000004 902.6350000000002 3769.5200000000004C903.3730000000003 3769.4400000000005 903.8080000000002 3769.2100000000005 903.9480000000002 3768.8200000000006C903.4330000000002 3769.0200000000004 902.9260000000002 3769.0200000000004 902.4230000000002 3768.830000000001C902.3310000000002 3768.150000000001 902.0040000000002 3767.5300000000007 901.4370000000002 3766.960000000001Z " fill="#808e90" fill-opacity="1" transform="matrix(1,0,0,1,-891,-3765)"></path></svg>